PathFileType	4	(X/Y/Z)
DataRate	CameraRate	NumFrames	NumMarkers	Units	OrigDataRate	OrigDataStartFrame	OrigNumFrames	
  120.0	  120.0	    5	     56	     mm	  120.0	      259	    688
Frame#	Time	LASI			RASI			LPSI			RPSI			RTH1			RTH2			RTH3			RLFC			RMFC			LTH1			LTH2			LTH3			LLFC			LMFC			RTB1			RTB2			RTB3			RLMAL			RMMAL			LTB1			LTB2			LTB3			LMMAL			LLMAL			RCAL			RTOE			RMT5			LCAL			LTOE			LMT5			LACR			RACR			CLAV			C7			LASH			LPSH			RASH			RPSH			RUA1			RUA2			RUA3			RLEL			RMEL			LUA1			LUA2			LUA3			LLEL			LMEL			RFAsuperior			RFAradius			RFAulna			LFAsuperior			LFAradius			LFAulna			RHJC			LHJC			
		X1	Y1	Z1	X2	Y2	Z2	X3	Y3	Z3	X4	Y4	Z4	X5	Y5	Z5	X6	Y6	Z6	X7	Y7	Z7	X8	Y8	Z8	X9	Y9	Z9	X10	Y10	Z10	X11	Y11	Z11	X12	Y12	Z12	X13	Y13	Z13	X14	Y14	Z14	X15	Y15	Z15	X16	Y16	Z16	X17	Y17	Z17	X18	Y18	Z18	X19	Y19	Z19	X20	Y20	Z20	X21	Y21	Z21	X22	Y22	Z22	X23	Y23	Z23	X24	Y24	Z24	X25	Y25	Z25	X26	Y26	Z26	X27	Y27	Z27	X28	Y28	Z28	X29	Y29	Z29	X30	Y30	Z30	X31	Y31	Z31	X32	Y32	Z32	X33	Y33	Z33	X34	Y34	Z34	X35	Y35	Z35	X36	Y36	Z36	X37	Y37	Z37	X38	Y38	Z38	X39	Y39	Z39	X40	Y40	Z40	X41	Y41	Z41	X42	Y42	Z42	X43	Y43	Z43	X44	Y44	Z44	X45	Y45	Z45	X46	Y46	Z46	X47	Y47	Z47	X48	Y48	Z48	X49	Y49	Z49	X50	Y50	Z50	X51	Y51	Z51	X52	Y52	Z52	X53	Y53	Z53	X54	Y54	Z54	X55	Y55	Z55	X56	Y56	Z56	

308	2.56667	620.59581	1018.18523	-667.44782	805.68071	1025.02124	-515.77646	563.74190	1044.69918	-495.81714	639.67529	1046.28920	-434.64118	816.57037	875.83073	-411.99295	849.95974	732.59162	-453.25882	803.65726	642.54907	-399.49133	829.09443	540.25630	-403.60009	727.56590	519.20002	-479.02781	504.88711	857.06872	-642.78837	543.05503	751.25146	-685.67998	491.89358	639.14364	-603.32922	488.33934	538.07103	-618.71942	591.27518	514.39639	-557.86276	820.50942	401.43400	-438.83133	832.05451	360.49749	-349.47350	817.10741	226.79336	-394.95089	808.89430	122.54565	-317.40416	754.43383	128.22152	-390.21483	523.81346	395.57362	-623.94013	446.55676	312.66278	-601.61102	500.62316	205.17782	-593.19245	523.35143	122.49765	-543.34472	434.29684	116.66143	-558.03053	726.41308	84.60276	-302.37383	858.95681	79.32438	-469.00166	925.79176	48.48246	-388.59108	452.18443	86.35103	-479.65719	556.37420	74.51940	-661.69362	454.54609	44.81371	-692.15733	486.70575	1517.23947	-567.44785	743.87677	1502.24764	-385.12176	696.31132	1463.61752	-549.19591	602.19738	1520.06837	-463.61405	546.20178	1493.68241	-617.03112	465.71393	1467.98400	-533.94455	779.36304	1477.27602	-452.45553	714.55423	1460.76224	-354.32251	806.68196	1469.67386	-343.43533	883.99904	1444.43432	-376.68757	880.88263	1396.85148	-306.23326	995.83864	1380.66946	-285.78611	980.18352	1327.59202	-318.33878	423.11014	1475.93738	-612.37569	407.70452	1401.18746	-629.66005	394.58578	1444.47852	-710.94961	315.64650	1383.28115	-778.48740	346.02602	1328.84737	-763.33317	1058.14390	1421.59212	-347.71445	1211.12115	1404.84054	-465.61290	1238.50597	1388.82705	-405.22155	351.53812	1415.18627	-847.43881	453.81856	1390.96598	-1024.33167	389.39404	1373.86571	-1042.88873	738.12728	968.56995	-490.51602	608.78249	957.22484	-596.38064	
309	2.57500	620.56811	1018.17261	-667.45258	805.66338	1025.01999	-515.76951	563.72216	1044.67423	-495.80972	639.66340	1046.26559	-434.63029	816.55416	875.83195	-411.98480	849.94810	732.58676	-453.26144	803.65227	642.57132	-399.50813	829.09998	540.25444	-403.59523	727.57640	519.19057	-479.09586	504.88719	857.05640	-642.74874	543.02427	751.26476	-685.69209	491.87014	639.15036	-603.31406	488.32343	538.07629	-618.70719	591.27617	514.39447	-557.86606	820.50880	401.43985	-438.89091	832.08915	360.51967	-349.41000	817.10650	226.79149	-394.93961	808.90219	122.54280	-317.39677	754.43583	128.21945	-390.20942	523.81678	395.57155	-623.96001	446.55657	312.65996	-601.62656	500.62949	205.19141	-593.23375	523.34997	122.49343	-543.34121	434.29679	116.65434	-558.03148	726.41488	84.58131	-302.35083	858.95826	79.32354	-468.98306	925.83285	48.44110	-388.59051	452.18722	86.35089	-479.64793	556.37044	74.51724	-661.68817	454.53133	44.79710	-692.12980	486.73436	1517.26849	-567.41185	743.88627	1502.21869	-385.04359	696.33997	1463.62247	-549.17180	602.21107	1520.06968	-463.55724	546.23729	1493.69915	-617.02573	465.75196	1468.01281	-533.90782	779.37509	1477.26149	-452.39460	714.55863	1460.73742	-354.27355	806.66981	1469.62449	-343.35502	883.99852	1444.41189	-376.59510	880.86468	1396.79478	-306.15189	995.81105	1380.62417	-285.70176	980.16113	1327.55630	-318.24331	423.13358	1475.97299	-612.36851	407.80343	1401.19160	-629.69830	394.63856	1444.51548	-710.94292	315.71653	1383.32760	-778.50791	346.08081	1328.87165	-763.35252	1058.14203	1421.54635	-347.58605	1211.14994	1404.75754	-465.38216	1238.53275	1388.75329	-405.00257	351.60727	1415.21847	-847.46243	453.91382	1391.03642	-1024.35440	389.49251	1373.94053	-1042.92221	738.11658	968.55947	-490.51959	608.76555	957.20844	-596.37658	
310	2.58333	620.54178	1018.16178	-667.45829	805.64556	1025.01706	-515.77270	563.70953	1044.65638	-495.79915	639.65459	1046.24570	-434.62752	816.53862	875.83389	-411.99999	849.94117	732.58461	-453.28889	803.64342	642.56811	-399.52141	829.10807	540.25208	-403.60025	727.59234	519.16989	-479.18491	504.88526	857.04462	-642.70127	542.98367	751.28135	-685.70635	491.85140	639.15692	-603.29792	488.31530	538.07983	-618.70286	591.27489	514.39786	-557.88294	820.50743	401.44002	-438.94092	832.12135	360.53709	-349.37492	817.10416	226.79190	-394.92986	808.91388	122.54174	-317.39758	754.43326	128.21898	-390.19234	523.81190	395.56531	-623.95449	446.56031	312.65953	-601.64622	500.62940	205.19265	-593.25518	523.34915	122.49159	-543.34238	434.29764	116.64733	-558.04246	726.42441	84.59816	-302.33381	858.96847	79.33190	-468.98471	925.85939	48.43045	-388.58236	452.18974	86.35277	-479.64751	556.36866	74.52020	-661.69307	454.54204	44.80874	-692.15639	486.76568	1517.29867	-567.37875	743.89532	1502.20194	-384.96285	696.36886	1463.63562	-549.16057	602.22768	1520.08052	-463.51010	546.27914	1493.72531	-617.04444	465.79337	1468.04813	-533.86923	779.39010	1477.25191	-452.34022	714.56358	1460.72276	-354.23105	806.66650	1469.58152	-343.27320	883.99780	1444.39692	-376.52516	880.84154	1396.74731	-306.08219	995.78364	1380.57854	-285.63468	980.14065	1327.52397	-318.15894	423.17024	1476.00769	-612.36079	407.89673	1401.20671	-629.73118	394.68763	1444.54941	-710.93616	315.78066	1383.37148	-778.52915	346.11422	1328.88933	-763.33825	1058.14083	1421.50680	-347.46319	1211.17261	1404.67369	-465.18035	1238.55417	1388.68316	-404.84828	351.67495	1415.26130	-847.46537	453.99593	1391.09640	-1024.36739	389.57791	1374.00497	-1042.94597	738.10782	968.54976	-490.52869	608.74690	957.19526	-596.37390	
311	2.59167	620.51853	1018.15307	-667.46454	805.62586	1025.01103	-515.78757	563.70237	1044.64912	-495.78701	639.64903	1046.23228	-434.63235	816.52440	875.83037	-412.03796	849.93615	732.58421	-453.32667	803.63252	642.55457	-399.53310	829.11377	540.25014	-403.61488	727.61005	519.14430	-479.26447	504.88199	857.03294	-642.66166	542.93563	751.29380	-685.71660	491.83681	639.16162	-603.28451	488.31239	538.07997	-618.71015	591.26871	514.40441	-557.90587	820.50519	401.43016	-438.95145	832.18643	360.57712	-349.30859	817.10251	226.79320	-394.93247	808.92522	122.54294	-317.40478	754.42895	128.22025	-390.17626	523.79586	395.55515	-623.92424	446.56226	312.66247	-601.66150	500.61950	205.17676	-593.24175	523.34797	122.49140	-543.34537	434.29723	116.64295	-558.05579	726.43705	84.63447	-302.32838	858.98025	79.34656	-468.99916	925.85534	48.45972	-388.56887	452.19159	86.35529	-479.65560	556.36994	74.52734	-661.70566	454.56962	44.83906	-692.21792	486.80631	1517.32252	-567.35093	743.90644	1502.19340	-384.88042	696.40012	1463.66116	-549.14485	602.24915	1520.09264	-463.47435	546.33104	1493.76279	-617.07327	465.83893	1468.08936	-533.83474	779.41027	1477.24365	-452.28830	714.56890	1460.71389	-354.18864	806.66971	1469.55489	-343.19519	883.99550	1444.38083	-376.47417	880.81568	1396.69716	-306.03741	995.75655	1380.53085	-285.58986	980.12001	1327.49129	-318.08115	423.22333	1476.03788	-612.35562	407.97125	1401.22750	-629.75290	394.73359	1444.58272	-710.93142	315.83994	1383.40823	-778.55106	346.15392	1328.90870	-763.33316	1058.13974	1421.47055	-347.34758	1211.18734	1404.59323	-465.03311	1238.56509	1388.61138	-404.75277	351.74296	1415.31843	-847.45639	454.06465	1391.14006	-1024.36569	389.64980	1374.05295	-1042.95474	738.09943	968.54107	-490.54284	608.72530	957.18664	-596.37262	
312	2.60000	620.49682	1018.14753	-667.46875	805.60421	1025.00027	-515.80655	563.69612	1044.64986	-495.77356	639.64481	1046.22476	-434.63806	816.51365	875.81932	-412.07658	849.92877	732.58399	-453.34944	803.62201	642.54599	-399.53895	829.11424	540.24975	-403.63050	727.62230	519.12323	-479.31197	504.87567	857.02534	-642.63592	542.88462	751.29210	-685.72393	491.82474	639.16550	-603.27668	488.30700	538.07792	-618.72308	591.25724	514.41055	-557.92156	820.50036	401.41285	-438.91396	832.31156	360.66075	-349.14601	817.10092	226.79083	-394.94501	808.93181	122.54531	-317.41133	754.42602	128.22159	-390.17278	523.76841	395.54376	-623.88235	446.55680	312.66801	-601.66398	500.60496	205.15470	-593.21091	523.34567	122.49185	-543.34749	434.29320	116.64234	-558.06232	726.44815	84.66630	-302.33141	858.98645	79.35921	-469.00703	925.82740	48.50421	-388.56036	452.19247	86.35683	-479.66582	556.37291	74.53520	-661.71673	454.59624	44.86911	-692.27698	486.85619	1517.33782	-567.32607	743.91834	1502.18470	-384.79770	696.43535	1463.69642	-549.10860	602.27313	1520.09898	-463.44707	546.39239	1493.80674	-617.09310	465.88960	1468.13066	-533.80669	779.43457	1477.23319	-452.22843	714.57337	1460.70438	-354.13945	806.67467	1469.54118	-343.12348	883.99272	1444.35575	-376.42386	880.79086	1396.64149	-306.00848	995.73025	1380.48069	-285.54704	980.09864	1327.45650	-317.99960	423.28319	1476.06049	-612.35699	408.02487	1401.24448	-629.76213	394.77828	1444.61348	-710.92795	315.89835	1383.43539	-778.57110	346.21522	1328.93040	-763.35833	1058.13708	1421.43133	-347.23277	1211.19470	1404.51967	-464.94972	1238.56666	1388.53377	-404.67428	351.81298	1415.37805	-847.44960	454.13334	1391.16950	-1024.35210	389.72156	1374.08656	-1042.95138	738.08849	968.53174	-490.55720	608.69985	957.18270	-596.37052	
